<?xml version="1.0" encoding="UTF-8"?>
<mxfile host="app.diagrams.net" modified="2025-03-04T16:53:00.000Z" agent="Mozilla/5.0" version="21.1.1" type="device">
  <diagram id="use-case-diagram" name="Use Case Diagram">
    <mxGraphModel dx="1422" dy="798" grid="1" gridSize="10" guides="1" tooltips="1" connect="1" arrows="1" fold="1" page="1" pageScale="1" pageWidth="1169" pageHeight="827" math="0" shadow="0">
      <root>
        <mxCell id="0" />
        <mxCell id="1" parent="0" />
        
        <!-- Actors -->
        <mxCell id="2" value="Patient" style="shape=umlActor;verticalLabelPosition=bottom;verticalAlign=top;html=1;" vertex="1" parent="1">
          <mxGeometry x="100" y="300" width="30" height="60" as="geometry" />
        </mxCell>
        
        <mxCell id="3" value="Doctor" style="shape=umlActor;verticalLabelPosition=bottom;verticalAlign=top;html=1;" vertex="1" parent="1">
          <mxGeometry x="100" y="500" width="30" height="60" as="geometry" />
        </mxCell>
        
        <mxCell id="4" value="Caregiver" style="shape=umlActor;verticalLabelPosition=bottom;verticalAlign=top;html=1;" vertex="1" parent="1">
          <mxGeometry x="100" y="100" width="30" height="60" as="geometry" />
        </mxCell>
        
        <!-- System Boundary -->
        <mxCell id="5" value="Care Plus System" style="shape=rect;html=1;verticalAlign=top;fontStyle=1;whiteSpace=wrap;align=center;" vertex="1" parent="1">
          <mxGeometry x="200" y="40" width="600" height="680" as="geometry" />
        </mxCell>
        
        <!-- Use Cases -->
        <!-- Authentication -->
        <mxCell id="6" value="Authenticate User" style="ellipse;whiteSpace=wrap;html=1;" vertex="1" parent="1">
          <mxGeometry x="240" y="310" width="120" height="40" as="geometry" />
        </mxCell>
        
        <!-- Patient Use Cases -->
        <mxCell id="7" value="View Medications" style="ellipse;whiteSpace=wrap;html=1;" vertex="1" parent="1">
          <mxGeometry x="400" y="200" width="120" height="40" as="geometry" />
        </mxCell>
        
        <mxCell id="8" value="Record Health Vitals" style="ellipse;whiteSpace=wrap;html=1;" vertex="1" parent="1">
          <mxGeometry x="400" y="260" width="120" height="40" as="geometry" />
        </mxCell>
        
        <mxCell id="9" value="Report Side Effects" style="ellipse;whiteSpace=wrap;html=1;" vertex="1" parent="1">
          <mxGeometry x="400" y="320" width="120" height="40" as="geometry" />
        </mxCell>
        
        <!-- Doctor Use Cases -->
        <mxCell id="10" value="Create Diagnosis" style="ellipse;whiteSpace=wrap;html=1;" vertex="1" parent="1">
          <mxGeometry x="400" y="440" width="120" height="40" as="geometry" />
        </mxCell>
        
        <mxCell id="11" value="Prescribe Medication" style="ellipse;whiteSpace=wrap;html=1;" vertex="1" parent="1">
          <mxGeometry x="400" y="500" width="120" height="40" as="geometry" />
        </mxCell>
        
        <mxCell id="12" value="Generate Reports" style="ellipse;whiteSpace=wrap;html=1;" vertex="1" parent="1">
          <mxGeometry x="400" y="560" width="120" height="40" as="geometry" />
        </mxCell>
        
        <!-- Caregiver Use Cases -->
        <mxCell id="13" value="Monitor Patient" style="ellipse;whiteSpace=wrap;html=1;" vertex="1" parent="1">
          <mxGeometry x="400" y="80" width="120" height="40" as="geometry" />
        </mxCell>
        
        <mxCell id="14" value="Manage Schedules" style="ellipse;whiteSpace=wrap;html=1;" vertex="1" parent="1">
          <mxGeometry x="400" y="140" width="120" height="40" as="geometry" />
        </mxCell>
        
        <!-- Extended Use Cases -->
        <mxCell id="15" value="Receive Notifications" style="ellipse;whiteSpace=wrap;html=1;" vertex="1" parent="1">
          <mxGeometry x="600" y="260" width="120" height="40" as="geometry" />
        </mxCell>
        
        <mxCell id="16" value="Manage Profile" style="ellipse;whiteSpace=wrap;html=1;" vertex="1" parent="1">
          <mxGeometry x="600" y="320" width="120" height="40" as="geometry" />
        </mxCell>
        
        <!-- Connections -->
        <!-- Patient Connections -->
        <mxCell id="17" value="" style="endArrow=none;html=1;entryX=0;entryY=0.5;exitX=1;exitY=0.3;exitDx=0;exitDy=0;exitPerimeter=0;" edge="1" parent="1" source="2" target="6">
          <mxGeometry width="50" height="50" relative="1" as="geometry" />
        </mxCell>
        
        <mxCell id="18" value="" style="endArrow=none;html=1;entryX=0;entryY=0.5;" edge="1" parent="1" source="2" target="7">
          <mxGeometry width="50" height="50" relative="1" as="geometry" />
        </mxCell>
        
        <mxCell id="19" value="" style="endArrow=none;html=1;entryX=0;entryY=0.5;" edge="1" parent="1" source="2" target="8">
          <mxGeometry width="50" height="50" relative="1" as="geometry" />
        </mxCell>
        
        <mxCell id="20" value="" style="endArrow=none;html=1;entryX=0;entryY=0.5;" edge="1" parent="1" source="2" target="9">
          <mxGeometry width="50" height="50" relative="1" as="geometry" />
        </mxCell>
        
        <!-- Doctor Connections -->
        <mxCell id="21" value="" style="endArrow=none;html=1;entryX=0;entryY=0.5;" edge="1" parent="1" source="3" target="6">
          <mxGeometry width="50" height="50" relative="1" as="geometry" />
        </mxCell>
        
        <mxCell id="22" value="" style="endArrow=none;html=1;entryX=0;entryY=0.5;" edge="1" parent="1" source="3" target="10">
          <mxGeometry width="50" height="50" relative="1" as="geometry" />
        </mxCell>
        
        <mxCell id="23" value="" style="endArrow=none;html=1;entryX=0;entryY=0.5;" edge="1" parent="1" source="3" target="11">
          <mxGeometry width="50" height="50" relative="1" as="geometry" />
        </mxCell>
        
        <mxCell id="24" value="" style="endArrow=none;html=1;entryX=0;entryY=0.5;" edge="1" parent="1" source="3" target="12">
          <mxGeometry width="50" height="50" relative="1" as="geometry" />
        </mxCell>
        
        <!-- Caregiver Connections -->
        <mxCell id="25" value="" style="endArrow=none;html=1;entryX=0;entryY=0.5;" edge="1" parent="1" source="4" target="6">
          <mxGeometry width="50" height="50" relative="1" as="geometry" />
        </mxCell>
        
        <mxCell id="26" value="" style="endArrow=none;html=1;entryX=0;entryY=0.5;" edge="1" parent="1" source="4" target="13">
          <mxGeometry width="50" height="50" relative="1" as="geometry" />
        </mxCell>
        
        <mxCell id="27" value="" style="endArrow=none;html=1;entryX=0;entryY=0.5;" edge="1" parent="1" source="4" target="14">
          <mxGeometry width="50" height="50" relative="1" as="geometry" />
        </mxCell>
        
        <!-- Include Relationships -->
        <mxCell id="28" value="&lt;&lt;include&gt;&gt;" style="endArrow=open;endSize=12;dashed=1;html=1;exitX=1;exitY=0.5;entryX=0;entryY=0.5;" edge="1" parent="1" source="7" target="15">
          <mxGeometry width="160" relative="1" as="geometry" />
        </mxCell>
        
        <mxCell id="29" value="&lt;&lt;include&gt;&gt;" style="endArrow=open;endSize=12;dashed=1;html=1;exitX=1;exitY=0.5;entryX=0;entryY=0.5;" edge="1" parent="1" source="6" target="16">
          <mxGeometry width="160" relative="1" as="geometry" />
        </mxCell>
        
      </root>
    </mxGraphModel>
  </diagram>
</mxfile>
